<svg xmlns="http://www.w3.org/2000/svg" viewBox="0 0 32 32" fill="none">
  <rect width="32" height="32" rx="6" fill="#0b1220"/>
  <rect x="3" y="27.25" width="26" height="1.5" rx="0.75" fill="#38bdf8"/>
  <!-- P -->
  <path fill="#ffffff" d="M4.8 8h5.35c2.7 0 4.35 1.5 4.35 3.7 0 2.25-1.65 3.7-4.35 3.7H7.15V20H4.8V8zm2.35 1.9v3.55h2.7c1.3 0 2.05-.65 2.05-1.8S10.15 9.9 8.85 9.9H7.15z"/>
  <!-- S -->
  <path fill="#ffffff" d="M20.85 9.05c-2.45 0-4 1.2-4 2.95 0 1.4.75 2.25 2.7 2.85l1.2.35c1.1.35 1.5.65 1.5 1.25 0 .75-.7 1.25-1.8 1.25-1.15 0-1.9-.55-2.2-1.4l-2.2.75c.55 1.9 2.25 3.05 4.45 3.05 2.65 0 4.35-1.4 4.35-3.35 0-1.55-.85-2.5-2.85-3.1l-1.25-.4c-1-.3-1.35-.6-1.35-1.15 0-.65.6-1.1 1.55-1.1.95 0 1.55.4 1.8 1.15l2.15-.7c-.5-1.75-2.05-2.8-4.05-2.8z"/>
  <!-- L -->
  <path fill="#ffffff" d="M26.2 8h2.4v9.95h3.35V20H26.2V8z"/>
</svg>
